<?xml version="1.0" standalone="no"?>
<!DOCTYPE svg PUBLIC "-//W3C//DTD SVG 20010904//EN"
 "http://www.w3.org/TR/2001/REC-SVG-20010904/DTD/svg10.dtd">
<svg version="1.0" xmlns="http://www.w3.org/2000/svg"
 width="1160.000000pt" height="1060.000000pt" viewBox="0 0 1160.000000 1060.000000"
 preserveAspectRatio="xMidYMid meet">

<g transform="translate(0.000000,1060.000000) scale(0.100000,-0.100000)"
fill="#000000" stroke="none">
<path d="M6213 9202 c-118 -84 -803 -562 -1453 -1016 -173 -121 -425 -297
-560 -391 l-245 -172 -5 -766 -5 -766 -71 -48 c-39 -26 -139 -95 -223 -153
-83 -58 -222 -153 -309 -213 -299 -205 -513 -352 -641 -442 -71 -49 -192 -133
-270 -185 l-141 -95 0 -1273 c0 -1208 1 -1273 18 -1268 273 80 367 109 538
167 191 65 453 169 481 192 10 7 13 186 15 810 l3 800 165 113 c379 259 424
289 432 292 4 2 8 -379 8 -847 0 -468 3 -851 7 -851 15 0 402 228 568 335 313
202 451 298 752 522 277 206 615 489 950 797 l132 121 1 1658 c0 911 2 1657 4
1657 7 0 746 -504 1061 -724 373 -260 1124 -779 1368 -946 l227 -155 2 -438 3
-437 118 116 117 116 0 393 0 392 -52 36 c-29 20 -119 83 -200 139 -81 57
-200 139 -265 183 -64 44 -201 138 -303 208 l-185 128 -5 381 -5 382 -430 303
c-236 167 -551 390 -700 495 -613 436 -760 538 -771 537 -5 0 -64 -40 -131
-87z"/>
<path d="M9616 7681 c-10 -4 -37 -6 -60 -4 -51 5 -183 -13 -295 -38 -47 -11
-101 -22 -120 -25 -20 -3 -38 -8 -40 -10 -6 -6 161 4 191 11 68 15 88 18 141
22 39 3 57 1 57 -7 0 -6 -4 -9 -8 -6 -12 7 -182 -25 -182 -33 0 -4 -23 -4 -51
-1 -34 4 -58 2 -76 -7 -15 -8 -33 -11 -41 -8 -7 3 -19 2 -25 -2 -15 -10 -147
-44 -170 -44 -9 0 -29 -7 -45 -15 -15 -7 -32 -14 -39 -14 -7 0 -56 -14 -110
-31 -54 -17 -104 -33 -110 -35 -7 -2 -13 -8 -13 -13 0 -13 51 -4 110 20 25 10
70 25 100 34 30 9 69 20 85 26 53 19 148 40 159 36 6 -3 -7 -8 -28 -12 -22 -4
-65 -19 -95 -32 -54 -23 -54 -24 -16 -17 22 4 51 6 64 5 13 0 42 4 64 10 30 8
37 13 26 20 -11 7 -9 9 9 9 20 0 21 -3 12 -20 -9 -16 -8 -20 5 -20 8 0 15 3
15 8 0 4 21 8 46 8 30 1 41 -2 33 -7 -11 -7 -9 -9 5 -9 11 0 28 8 38 17 16 14
21 15 28 3 7 -11 14 -12 35 -2 14 7 36 12 48 13 20 0 21 1 3 8 -18 7 -18 8 -2
14 25 10 38 9 31 -3 -3 -5 1 -10 10 -10 9 0 14 4 11 8 -6 10 111 16 297 14
137 -1 154 -3 239 -32 50 -17 104 -38 119 -46 16 -8 34 -13 41 -12 7 2 12 -1
13 -7 0 -11 95 -106 95 -96 0 4 -5 12 -12 19 -7 7 -8 12 -2 12 5 -1 25 -25 44
-55 19 -30 38 -55 41 -55 8 0 9 -10 14 -132 2 -63 0 -110 -6 -114 -6 -3 -8 18
-6 55 2 34 -1 61 -6 61 -5 0 -7 -39 -5 -90 1 -50 1 -90 -2 -90 -3 0 -14 -33
-24 -72 -21 -84 -161 -373 -248 -514 -7 -12 -33 -49 -58 -82 -25 -33 -63 -87
-85 -118 -22 -32 -61 -81 -86 -109 -25 -27 -54 -66 -65 -85 -10 -19 -28 -44
-39 -56 -11 -11 -45 -49 -75 -84 -186 -213 -254 -286 -439 -470 -244 -243
-427 -403 -696 -605 -56 -43 -158 -105 -171 -105 -15 0 -24 48 -10 53 11 4 12
15 23 145 4 52 2 72 -7 72 -7 0 -9 8 -5 20 8 27 -11 83 -35 105 -23 21 -27 11
-5 -12 25 -24 9 -27 -23 -4 -30 21 -72 21 -114 -1 -11 -5 -18 -5 -18 1 0 18
36 30 93 33 15 1 27 5 27 11 0 17 -99 -2 -154 -30 -28 -14 -83 -49 -122 -78
-78 -58 -273 -247 -350 -339 -27 -32 -64 -75 -81 -95 -18 -20 -50 -60 -70 -89
-21 -30 -99 -126 -173 -214 -74 -88 -157 -189 -184 -225 -27 -35 -51 -61 -54
-59 -2 3 13 36 35 73 22 37 70 129 107 203 36 74 82 162 101 195 19 33 45 78
56 100 12 22 32 54 45 70 12 17 36 55 52 85 31 60 52 95 102 180 17 30 34 62
36 73 1 10 18 39 37 65 60 84 210 355 322 582 136 277 188 464 150 543 -9 21
-21 37 -25 37 -5 0 -16 7 -24 16 -14 13 -24 13 -77 3 -51 -10 -75 -22 -138
-72 -77 -61 -207 -187 -248 -241 -21 -27 -138 -156 -270 -295 -29 -31 -51 -61
-48 -68 2 -8 -2 -10 -12 -6 -13 5 -15 2 -10 -11 5 -12 -8 -33 -46 -74 -28 -31
-57 -62 -64 -69 -6 -7 -16 -13 -20 -13 -15 0 -78 -60 -78 -74 0 -15 -23 -39
-53 -55 -12 -7 -20 -17 -16 -23 4 -7 3 -8 -4 -4 -7 4 -17 -3 -24 -18 -6 -14
-16 -26 -22 -26 -14 0 -336 -322 -331 -331 3 -4 -1 -6 -9 -5 -7 0 -69 -51
-137 -115 -327 -304 -630 -565 -874 -750 -27 -21 -106 -81 -175 -133 -69 -53
-175 -130 -235 -170 -61 -41 -117 -81 -124 -89 -7 -9 -31 -25 -54 -37 -23 -12
-78 -48 -122 -79 -187 -135 -918 -569 -971 -577 -6 -1 -29 -14 -50 -28 -21
-14 -43 -26 -47 -26 -5 0 -94 -43 -198 -95 -104 -52 -193 -95 -197 -96 -34 -9
-42 -12 -42 -20 0 -5 -9 -9 -19 -9 -16 0 -298 -107 -341 -129 -8 -4 -103 -36
-210 -70 -107 -34 -206 -67 -220 -73 -14 -6 -32 -12 -40 -13 -36 -6 -120 -27
-177 -46 -35 -11 -78 -19 -97 -18 -22 2 -41 -3 -54 -14 -10 -9 -23 -17 -28
-17 -5 0 -2 5 6 11 12 8 11 9 -5 5 -61 -15 -90 -17 -75 -6 11 9 -6 10 -70 5
-117 -8 -155 -16 -138 -26 10 -7 10 -9 -3 -9 -8 0 -20 5 -27 12 -8 8 -15 8
-27 -2 -12 -10 -19 -10 -27 -2 -14 14 -55 16 -63 2 -3 -5 -15 -6 -28 -1 -12 5
-31 7 -42 5 -11 -2 -27 -1 -35 3 -8 3 -25 7 -38 9 -13 1 -31 9 -40 16 -11 9
-14 10 -8 1 5 -9 2 -11 -8 -7 -9 3 -14 9 -12 13 2 3 -9 6 -26 7 -42 2 -137 72
-170 126 -58 94 -61 241 -9 411 16 55 27 105 25 112 -3 7 1 19 8 26 8 8 31 48
52 89 21 41 75 127 119 193 105 151 121 177 110 177 -16 -1 -213 -279 -213
-301 0 -6 -4 -8 -8 -5 -5 3 -9 0 -9 -7 0 -7 -16 -38 -36 -70 -37 -60 -126
-274 -128 -305 0 -9 -3 -12 -5 -5 -12 29 82 266 165 418 24 44 57 105 73 135
28 52 82 131 119 175 119 140 197 226 333 364 139 141 153 162 62 91 -83 -65
-376 -354 -376 -371 0 -5 -4 -7 -10 -4 -5 3 -10 2 -10 -3 0 -6 -15 -25 -33
-44 -47 -50 -172 -226 -172 -243 0 -8 -8 -20 -17 -27 -25 -20 -64 -89 -71
-126 -4 -18 -18 -48 -32 -66 -14 -18 -25 -38 -25 -44 0 -6 -16 -58 -35 -116
-20 -57 -35 -108 -33 -113 1 -4 -4 -52 -11 -105 -17 -120 -9 -268 14 -281 10
-5 14 -16 10 -30 -4 -15 -3 -18 3 -9 7 10 13 7 27 -15 10 -15 29 -40 43 -56
14 -15 22 -27 17 -27 -4 0 -14 8 -21 17 -7 10 -14 13 -14 7 0 -7 17 -24 37
-40 29 -21 33 -22 19 -6 -11 12 -16 22 -12 22 14 0 65 -43 60 -51 -2 -5 8 -15
24 -23 26 -13 28 -13 29 4 1 12 -8 22 -22 27 -13 4 -55 39 -94 76 -53 52 -75
82 -91 125 -22 59 -32 133 -19 153 7 13 10 6 29 -77 25 -113 95 -189 233 -252
26 -13 46 -26 43 -31 -9 -14 113 -43 149 -37 37 7 68 -1 59 -16 -9 -14 -142
-1 -214 21 -33 10 -60 15 -60 10 0 -8 63 -29 88 -29 6 0 12 -5 12 -11 0 -6 7
-8 16 -5 8 3 23 -1 31 -10 12 -12 26 -14 57 -9 23 3 61 8 86 9 71 5 72 5 64
18 -5 8 -2 9 10 5 10 -4 25 -7 34 -8 11 0 12 -2 4 -6 -6 -2 -10 -9 -6 -14 3
-5 -2 -9 -11 -9 -9 0 -13 5 -10 10 3 6 2 10 -4 10 -5 0 -12 -4 -15 -9 -4 -5
-27 -9 -52 -9 -25 0 -48 -3 -52 -6 -12 -12 144 -6 157 7 11 10 14 10 18 0 6
-18 53 -17 53 1 0 15 21 26 51 26 12 0 17 -4 13 -11 -3 -6 -15 -9 -25 -6 -10
3 -21 1 -24 -3 -9 -15 27 -16 110 -4 44 6 85 9 92 7 28 -11 331 52 503 104
193 58 344 105 370 116 14 6 43 16 65 23 115 35 379 141 490 196 33 16 79 36
102 44 50 17 310 146 403 200 36 20 83 46 105 57 65 32 209 119 225 137 18 20
61 43 116 64 23 8 147 83 275 166 227 147 295 194 457 311 42 30 153 111 246
178 228 165 433 325 618 483 145 124 218 189 438 387 163 147 472 455 724 722
249 263 273 290 366 399 30 36 58 67 62 68 5 2 8 12 8 22 0 21 24 43 34 32 4
-4 6 0 4 8 -1 8 2 14 8 13 6 -1 26 15 45 35 19 20 24 28 12 18 -13 -11 -23
-15 -23 -10 0 11 162 165 168 160 16 -17 -183 -449 -303 -656 -30 -52 -65
-115 -77 -140 -11 -25 -31 -61 -43 -80 -12 -19 -49 -79 -81 -132 -32 -54 -75
-122 -94 -152 -82 -126 -127 -203 -138 -233 -6 -18 -29 -60 -52 -93 -23 -34
-39 -64 -36 -67 3 -4 6 0 6 7 0 7 3 11 6 8 7 -8 -25 -59 -48 -76 -19 -14 -60
-86 -56 -99 4 -16 -33 -88 -53 -103 -11 -9 -21 -29 -23 -45 -2 -16 -8 -31 -15
-33 -6 -2 -9 -8 -5 -13 3 -5 0 -9 -6 -9 -6 0 -8 -4 -5 -10 3 -5 2 -10 -3 -10
-6 0 -13 -17 -17 -37 -3 -21 -18 -56 -32 -78 -14 -21 -28 -57 -30 -78 -2 -21
-7 -46 -12 -56 -6 -10 -6 -23 -1 -32 5 -7 7 -30 4 -50 -4 -22 -2 -39 5 -43 6
-4 11 -2 11 3 0 6 17 11 37 11 35 0 36 -1 17 -16 -18 -15 -18 -15 6 -11 46 8
55 12 128 60 63 42 174 143 265 243 15 17 29 41 32 54 2 12 7 25 11 29 4 3 4
-3 0 -14 -3 -11 20 9 53 45 33 36 60 70 61 75 0 6 25 39 55 73 30 35 53 68 49
73 -3 5 -2 8 3 7 4 -2 10 2 12 7 3 8 142 176 176 211 5 6 42 46 80 89 113 127
325 308 341 292 3 -3 -1 -60 -11 -127 -16 -117 -12 -243 5 -195 8 20 8 20 16
1 5 -13 3 -21 -4 -24 -7 -2 -10 -8 -6 -13 9 -15 24 -10 24 9 0 14 2 15 9 2 6
-8 7 -18 5 -22 -3 -4 4 -8 15 -8 12 0 20 -6 19 -12 -2 -7 4 -13 12 -14 8 0 23
-4 33 -9 33 -14 105 5 169 47 148 96 428 326 683 562 228 212 336 320 330 334
-2 7 0 10 5 7 6 -4 16 0 23 7 14 15 176 196 256 287 31 35 70 78 87 95 17 17
41 48 55 67 13 19 43 60 66 90 24 29 65 86 92 124 28 39 65 90 83 114 53 71
212 350 222 391 4 14 -8 -1 -26 -33 -66 -117 -267 -390 -369 -502 -25 -27 -96
-112 -158 -187 -62 -76 -114 -138 -117 -138 -8 0 4 17 89 128 43 57 96 127
117 155 22 29 45 52 52 52 7 0 30 26 51 58 21 32 63 84 93 114 30 31 54 59 54
63 0 4 11 20 25 36 27 31 85 126 85 139 0 5 -11 -2 -25 -15 -30 -28 -32 -16
-5 25 11 17 18 37 15 45 -2 8 5 26 16 40 17 21 19 22 10 3 -13 -27 -14 -56 -2
-49 5 4 11 1 13 -6 3 -9 6 -9 12 0 4 7 2 12 -3 12 -6 0 -11 7 -11 15 0 8 4 15
8 15 4 0 13 12 20 28 6 15 20 41 31 57 11 17 20 38 20 48 1 10 16 50 35 90 70
147 87 262 60 407 -8 47 -27 110 -41 140 -14 30 -25 61 -24 68 1 7 -3 11 -10
10 -6 -2 -14 3 -17 11 -3 9 0 11 8 6 9 -5 11 -4 6 4 -4 6 -11 9 -15 6 -5 -2
-16 4 -26 15 -10 11 -14 20 -10 20 5 0 -13 14 -38 31 -26 17 -45 34 -42 39 3
4 -9 13 -25 20 -17 7 -30 17 -30 22 0 6 -9 8 -20 5 -11 -3 -18 -1 -15 3 7 12
-58 32 -78 24 -10 -3 -17 -1 -17 5 0 6 -7 8 -15 5 -8 -4 -15 -2 -15 4 0 5 -12
8 -27 5 -24 -3 -25 -2 -8 6 16 7 12 10 -27 16 -25 4 -55 4 -67 0 -12 -3 -21
-2 -21 3 0 11 -196 14 -224 3z m41 -7 c-3 -3 -12 -4 -19 -1 -8 3 -5 6 6 6 11
1 17 -2 13 -5z m317 -64 c43 -12 95 -29 114 -39 l36 -18 -37 -5 c-20 -2 -37
-1 -37 2 0 11 -69 40 -112 46 -30 5 -39 4 -34 -4 8 -13 -7 -14 -44 -2 -20 6
-21 8 -5 9 14 1 16 4 8 12 -12 12 -279 7 -323 -6 -15 -5 -22 -4 -17 1 35 38
313 40 451 4z m-286 -6 c-12 -11 -70 -16 -63 -5 3 6 20 11 37 11 17 0 29 -3
26 -6z m-411 -30 c-3 -3 -12 -4 -19 -1 -8 3 -5 6 6 6 11 1 17 -2 13 -5z m738
-14 c13 -5 14 -9 5 -9 -8 0 -24 4 -35 9 -13 5 -14 9 -5 9 8 0 24 -4 35 -9z
m-865 -10 c-8 -5 -26 -9 -40 -9 l-25 1 25 8 c14 4 32 8 40 9 13 1 13 0 0 -9z
m836 -23 c4 -4 -2 -7 -14 -7 -11 0 -24 5 -27 10 -7 11 30 8 41 -3z m286 -101
c55 -55 100 -152 99 -213 -1 -63 9 -109 19 -93 11 19 0 -89 -16 -144 -8 -27
-14 -58 -14 -68 0 -23 -64 -188 -96 -248 -31 -57 -22 -22 27 105 46 121 58
171 64 278 10 189 -57 359 -172 435 -13 8 -23 18 -23 23 0 14 69 -32 112 -75z
m-99 -921 c-3 -9 -8 -14 -10 -11 -3 3 -2 9 2 15 9 16 15 13 8 -4z m-17 -83
c-18 -16 -18 -16 -6 6 6 13 14 21 18 18 3 -4 -2 -14 -12 -24z m-40 -60 c-17
-16 -18 -16 -5 5 7 12 15 20 18 17 3 -2 -3 -12 -13 -22z m-2047 -301 l-1 -36
-9 43 c-4 23 -11 48 -14 55 -4 6 1 3 9 -7 9 -11 16 -36 15 -55z m-109 21 c0
-4 -13 -15 -29 -25 -39 -23 -133 -108 -127 -115 3 -3 18 9 33 25 33 36 108 93
102 77 -2 -6 -40 -42 -84 -80 -43 -38 -76 -61 -73 -52 14 35 -21 5 -134 -115
-300 -317 -394 -408 -413 -401 -14 6 -17 4 -12 -9 3 -9 3 -16 -2 -14 -4 1 -48
-43 -97 -98 -103 -117 -486 -499 -624 -624 -125 -112 -307 -265 -323 -270 -6
-2 3 8 21 24 18 15 48 42 66 59 18 17 54 48 79 69 25 20 44 43 42 50 -4 12 45
57 68 61 27 6 47 19 45 30 -3 12 136 149 143 142 5 -6 163 153 414 417 104
109 181 183 185 177 7 -11 115 102 152 159 10 14 18 22 18 17 0 -6 6 -4 13 3
6 6 12 16 12 20 0 9 104 119 155 165 19 17 86 82 149 144 124 125 221 196 221
164z m13 -96 c-8 -33 -16 -78 -18 -99 -1 -21 -6 -41 -10 -45 -4 -4 -5 4 -1 18
3 14 -5 3 -18 -25 -14 -27 -25 -56 -25 -63 -1 -7 -5 -11 -9 -8 -5 3 -9 -7 -9
-22 0 -35 -159 -361 -193 -396 -13 -13 25 85 57 147 14 28 31 69 38 92 6 22
17 39 22 38 6 -1 25 25 42 58 35 69 37 77 16 59 -12 -10 -12 -4 3 36 9 27 21
52 26 55 5 4 6 11 2 17 -3 5 1 15 9 22 15 12 43 97 49 148 4 40 16 58 26 42 4
-7 1 -40 -7 -74z m10 -58 c-3 -16 -9 -28 -14 -28 -4 0 -3 14 3 31 12 36 18 35
11 -3z m1832 -70 c-15 -18 -35 -37 -44 -42 -11 -6 -10 -2 5 15 11 13 27 32 35
41 8 10 18 17 22 18 5 0 -3 -15 -18 -32z m-2075 -52 c0 -2 -7 -9 -15 -16 -13
-11 -14 -10 -9 4 5 14 24 23 24 12z m2020 -10 c0 -2 -7 -9 -15 -16 -13 -11
-14 -10 -9 4 5 14 24 23 24 12z m-160 -111 c-7 -9 -15 -13 -17 -11 -7 7 7 26
19 26 6 0 6 -6 -2 -15z m-2156 -19 c-3 -8 -13 -17 -22 -21 -13 -5 -13 -2 3 15
21 24 26 25 19 6z m496 -6 c-6 -11 -12 -20 -14 -20 -2 0 -2 9 1 20 3 11 9 20
15 20 5 0 4 -9 -2 -20z m-260 -335 c0 -2 -9 -19 -20 -37 -22 -37 -27 -27 -7
15 10 23 27 37 27 22z m-590 -18 c0 -2 -10 -12 -22 -23 l-23 -19 19 23 c18 21
26 27 26 19z m528 -91 c-13 -19 -24 -33 -26 -31 -6 6 31 65 40 65 5 0 -2 -15
-14 -34z m-38 -54 c0 -5 -7 -17 -15 -28 -14 -18 -14 -17 -4 9 12 27 19 34 19
19z m585 -132 c-3 -5 -14 -10 -23 -9 -14 0 -13 2 3 9 27 11 27 11 20 0z m-50
-18 c-13 -11 -65 -33 -65 -27 0 2 12 11 28 19 30 17 52 21 37 8z m665 -58
c-25 -25 -74 -69 -110 -97 -36 -28 -95 -80 -131 -115 -111 -107 -213 -172
-269 -172 -35 0 -41 14 -7 16 41 3 243 137 232 154 -4 6 1 7 11 3 14 -5 16 -3
11 11 -4 11 -3 15 4 11 5 -4 25 8 44 27 61 61 99 93 107 91 4 -2 7 0 6 5 -2 4
17 25 41 47 25 22 41 34 37 28 -13 -22 10 -14 34 12 13 14 26 25 29 25 3 0
-15 -21 -39 -46z m-1980 33 c0 -1 -26 -27 -57 -57 l-58 -55 55 58 c50 53 60
62 60 54z m685 -124 c-26 -48 -52 -94 -58 -100 -6 -9 -6 -13 2 -13 10 0 -34
-90 -69 -140 -61 -86 -286 -512 -325 -615 -10 -25 -22 -48 -26 -51 -9 -5 -5
20 10 59 6 16 9 33 6 37 -3 5 3 18 15 30 11 11 21 26 23 32 1 7 8 19 15 26 16
17 15 29 -1 29 -8 0 -49 -67 -92 -149 -78 -151 -107 -191 -59 -82 37 84 169
327 219 404 23 36 64 105 91 153 27 48 57 97 67 108 20 21 134 213 187 313 17
32 34 56 37 53 3 -3 -16 -45 -42 -94z m505 73 c0 -2 -37 -33 -82 -69 -46 -36
-127 -111 -181 -167 -55 -56 -101 -100 -103 -97 -7 7 225 236 292 287 62 47
74 55 74 46z m105 -31 c-33 -20 -71 -43 -85 -53 -19 -13 -22 -14 -15 -2 11 19
38 39 89 67 67 36 76 26 11 -12z m-635 5 c-6 -11 -13 -20 -16 -20 -2 0 0 9 6
20 6 11 13 20 16 20 2 0 0 -9 -6 -20z m715 -111 c4 -11 4 -23 1 -26 -3 -4 -6
1 -6 10 0 11 -5 14 -15 11 -11 -5 -13 -2 -9 10 8 22 21 20 29 -5z m-11 -122
c-5 -60 -4 -75 10 -86 9 -7 16 -18 16 -23 0 -6 -11 0 -25 13 -21 21 -25 33
-25 86 0 39 4 63 13 67 10 5 10 7 0 12 -7 3 -13 12 -13 21 0 12 2 12 15 -1 13
-12 15 -30 9 -89z m-1634 79 c0 -2 -8 -10 -17 -17 -16 -13 -17 -12 -4 4 13 16
21 21 21 13z m1667 -18 c-3 -8 -6 -5 -6 6 -1 11 2 17 5 13 3 -3 4 -12 1 -19z
m-6 -50 c-3 -21 -6 -26 -9 -15 -3 17 3 47 11 47 2 0 1 -15 -2 -32z m135 -53
c-11 -8 -27 -15 -35 -14 -9 0 -2 7 14 14 39 18 45 18 21 0z m-706 -49 c0 -7
-139 -146 -146 -146 -9 0 29 45 82 98 45 45 64 59 64 48z m-1316 -197 c-16
-17 -51 -49 -79 -71 -32 -26 -23 -15 25 31 78 73 105 94 54 40z m1084 -116
c-107 -157 -273 -353 -298 -353 -16 0 -12 7 23 42 65 67 140 155 215 255 78
104 120 142 60 56z m23 -91 c-5 -9 -19 -26 -32 -37 -25 -22 -17 -4 15 32 23
27 30 29 17 5z m-1681 -176 c0 -2 -8 -10 -17 -17 -16 -13 -17 -12 -4 4 13 16
21 21 21 13z m-110 -59 c0 -2 -10 -12 -22 -23 l-23 -19 19 23 c18 21 26 27 26
19z m1380 -25 c0 -5 -7 -17 -15 -28 -14 -18 -14 -17 -4 9 12 27 19 34 19 19z
m-1446 -33 c-10 -11 -28 -25 -39 -31 -11 -5 -4 4 15 21 41 36 51 40 24 10z
m1526 14 c0 -18 -158 -148 -168 -138 -4 4 0 10 8 13 8 3 44 34 80 68 61 60 80
73 80 57z m-1605 -73 c-3 -5 -16 -15 -28 -21 -19 -9 -19 -8 3 10 28 23 34 26
25 11z m1471 -125 c-11 -8 -24 -15 -30 -15 -5 0 -1 7 10 15 10 8 24 14 29 14
6 0 1 -6 -9 -14z m-1611 -3 c-40 -34 -243 -192 -300 -232 -185 -130 -395 -267
-395 -257 0 4 175 122 238 160 26 16 61 41 77 56 17 16 51 43 78 60 26 18 45
36 42 41 -3 5 0 12 6 16 8 4 9 3 5 -4 -4 -7 -3 -12 1 -12 14 0 85 51 79 57 -3
3 -12 0 -21 -7 -8 -7 -15 -10 -15 -7 0 6 130 98 175 123 24 14 43 18 30 6z
m-445 -376 c0 -3 -46 -35 -102 -72 -57 -36 -119 -81 -139 -98 -19 -17 -49 -41
-65 -54 -24 -18 -21 -18 16 4 25 14 50 31 55 38 8 9 139 96 260 171 47 29 18
3 -80 -74 -87 -69 -114 -85 -99 -58 4 7 3 9 -2 4 -5 -5 -9 -13 -9 -17 0 -9
-62 -49 -160 -105 -22 -12 -62 -36 -90 -52 -27 -17 -102 -61 -165 -98 -63 -37
-134 -80 -156 -96 -23 -16 -55 -33 -70 -39 l-29 -11 30 29 c17 17 57 44 90 62
33 18 89 52 125 75 36 23 83 51 105 63 39 20 105 72 92 72 -10 0 -103 -52
-177 -98 -239 -150 -497 -292 -529 -292 -6 0 -11 -3 -11 -7 0 -5 -11 -8 -24
-8 -28 0 -24 12 7 26 12 5 49 25 82 44 33 19 100 56 148 82 49 27 141 79 205
116 65 38 142 82 172 97 30 15 92 50 136 78 45 27 122 71 170 98 49 26 116 65
149 86 63 39 65 41 65 34z m-3589 -509 c-10 -9 -11 -8 -5 6 3 10 9 15 12 12 3
-3 0 -11 -7 -18z m-101 -41 c0 -3 -4 -8 -10 -11 -5 -3 -10 -1 -10 4 0 6 5 11
10 11 6 0 10 -2 10 -4z m2844 -5 c7 -11 -20 -34 -32 -27 -5 3 -50 -17 -98 -45
-49 -29 -123 -66 -164 -84 -41 -18 -93 -42 -115 -54 -22 -11 -46 -21 -54 -21
-7 0 -40 -13 -73 -30 -32 -16 -65 -30 -74 -30 -9 0 -12 -5 -8 -12 4 -6 3 -8
-4 -4 -6 3 -14 2 -17 -4 -4 -6 -15 -8 -26 -5 -13 5 -19 2 -17 -7 2 -9 -6 -12
-24 -11 -16 1 -28 -2 -28 -8 0 -5 -9 -9 -19 -9 -26 0 -52 -11 -46 -19 2 -4 -6
-7 -18 -7 -12 1 -21 -4 -20 -11 3 -13 -55 -36 -69 -27 -6 4 -13 1 -17 -5 -4
-6 -20 -13 -37 -15 -25 -3 -110 -33 -218 -75 -16 -6 -31 -9 -34 -6 -7 7 -7 7
98 49 52 21 131 53 175 71 44 18 112 45 150 60 87 33 91 35 197 84 47 23 96
41 108 41 12 0 35 14 52 30 31 31 58 39 58 18 0 -7 5 -5 11 6 9 15 13 16 20 5
7 -11 9 -10 9 5 0 12 5 16 16 12 8 -3 12 -2 9 4 -5 9 15 15 38 11 9 -1 229
107 242 120 11 11 22 12 29 0z m-278 -46 c-11 -8 -25 -15 -30 -15 -6 1 0 7 14
15 32 19 40 18 16 0z m-156 -30 c0 -8 -63 -45 -75 -45 -5 1 8 12 30 25 43 27
45 28 45 20z m-2453 -177 c-3 -8 -6 -5 -6 6 -1 11 2 17 5 13 3 -3 4 -12 1 -19z
m2163 7 c0 -2 -10 -9 -22 -15 -22 -11 -22 -10 -4 4 21 17 26 19 26 11z m-290
-119 c0 -2 -7 -7 -16 -10 -8 -3 -12 -2 -9 4 6 10 25 14 25 6z m-275 -166 c-11
-5 -27 -9 -35 -9 -13 -1 -13 0 0 9 8 5 24 9 35 9 l20 0 -20 -9z m-275 -4 c0
-2 -9 -6 -20 -9 -11 -3 -18 -1 -14 4 5 9 34 13 34 5z m189 -21 c-20 -7 -105
-29 -190 -50 -85 -20 -166 -43 -180 -50 -14 -8 -35 -11 -47 -8 -20 5 -153 -10
-211 -24 -14 -4 -22 -2 -18 4 3 5 46 15 94 22 97 14 365 69 483 100 87 22 121
26 69 6z m-686 -32 c-13 -2 -33 -2 -45 0 -13 2 -3 4 22 4 25 0 35 -2 23 -4z
m484 -49 c-3 -3 -12 -4 -19 -1 -8 3 -5 6 6 6 11 1 17 -2 13 -5z m-234 -41 c-7
-2 -19 -2 -25 0 -7 3 -2 5 12 5 14 0 19 -2 13 -5z m-143 -23 c0 -5 -10 -10
-22 -9 -22 0 -22 1 -3 9 11 5 21 9 23 9 1 1 2 -3 2 -9z m-70 -10 c0 -5 -8 -10
-17 -10 -15 0 -16 2 -3 10 19 12 20 12 20 0z m-407 -17 c-7 -2 -21 -2 -30 0
-10 3 -4 5 12 5 17 0 24 -2 18 -5z"/>
<path d="M6625 4800 c-3 -5 -1 -10 4 -10 6 0 11 5 11 10 0 6 -2 10 -4 10 -3 0
-8 -4 -11 -10z"/>
<path d="M6418 4609 c-20 -18 -25 -26 -13 -21 21 11 63 52 52 52 -4 0 -21 -14
-39 -31z"/>
<path d="M8724 4928 l-19 -23 23 19 c12 11 22 21 22 23 0 8 -8 2 -26 -19z"/>
<path d="M7257 4493 c-44 -79 -56 -104 -42 -88 19 23 58 95 51 95 -3 0 -7 -3
-9 -7z"/>
<path d="M7104 4239 c-19 -39 -33 -74 -30 -77 3 -3 6 1 6 9 0 12 2 12 9 0 7
-11 16 -1 35 37 28 56 31 66 16 57 -13 -8 -13 1 0 26 6 10 8 19 5 19 -2 0 -21
-32 -41 -71z m12 -16 c-8 -15 -15 -25 -16 -21 0 12 23 58 27 54 3 -2 -2 -17
-11 -33z"/>
<path d="M7156 4293 c-6 -14 -5 -15 5 -6 7 7 10 15 7 18 -3 3 -9 -2 -12 -12z"/>
<path d="M5175 3600 c-3 -6 1 -7 9 -4 18 7 21 14 7 14 -6 0 -13 -4 -16 -10z"/>
<path d="M4750 3200 c-9 -6 -10 -10 -3 -10 6 0 15 5 18 10 8 12 4 12 -15 0z"/>
<path d="M3150 2370 c-8 -5 -10 -10 -5 -10 6 0 17 5 25 10 8 5 11 10 5 10 -5
0 -17 -5 -25 -10z"/>
<path d="M8865 7460 c-3 -5 -2 -10 4 -10 5 0 13 5 16 10 3 6 2 10 -4 10 -5 0
-13 -4 -16 -10z"/>
<path d="M10240 7302 c6 -13 14 -21 18 -18 3 4 -2 14 -12 24 -18 16 -18 16 -6
-6z"/>
<path d="M10260 7265 c0 -5 7 -32 15 -60 l15 -50 -5 44 c-5 39 -24 91 -25 66z"/>
<path d="M10424 6946 c-3 -8 -4 -23 -2 -33 3 -11 6 -6 9 15 6 34 2 42 -7 18z"/>
<path d="M9895 6070 c-3 -5 -1 -10 4 -10 6 0 11 5 11 10 0 6 -2 10 -4 10 -3 0
-8 -4 -11 -10z"/>
<path d="M7200 5470 c-9 -6 -10 -10 -3 -10 6 0 15 5 18 10 8 12 4 12 -15 0z"/>
<path d="M9138 4882 l-118 -105 0 -636 c0 -499 -3 -647 -14 -686 -65 -243
-312 -375 -700 -375 -175 0 -397 33 -531 78 -30 11 -55 16 -55 12 0 -3 11 -40
25 -80 106 -311 93 -756 -28 -984 -37 -69 -120 -157 -175 -185 -107 -55 -108
-55 -664 -59 l-518 -3 0 1146 0 1147 -47 -41 c-562 -488 -1090 -876 -1720
-1264 -221 -136 -446 -264 -575 -328 l-68 -33 -2 -311 -3 -310 -302 -3 -303
-2 0 175 c0 96 -2 175 -4 175 -2 0 -55 -21 -118 -46 -208 -84 -431 -155 -682
-218 l-248 -63 1 -134 c1 -73 3 -134 4 -135 10 -7 4906 -11 4988 -3 258 22
476 112 701 289 104 82 715 690 874 870 184 208 251 301 316 440 90 191 89
182 86 1037 l-3 741 -117 -106z"/>
<path d="M6771 3744 c0 -11 3 -14 6 -6 3 7 2 16 -1 19 -3 4 -6 -2 -5 -13z"/>
</g>
</svg>
